#!OML:ASF H:\Terrain\Patient Classification 1\Walking\steve\steve.ASF
:FULLY-SPECIFIED
:DEGREES
142
root 7.30818 16.0407 -3.91649 6.14636 -8.7726 2.85116
lowerback -1.66165 3.12537 -4.11839
upperback -3.2243 4.13892 -1.63831
thorax -2.55902 2.14402 0.5828
lowerneck -10.4041 -0.521049 -1.60241
upperneck 14.7976 -0.825982 2.3976
head 6.21793 -0.298934 0.956423
rclavicle -7.66967e-014 2.32578e-014
rhumerus -42.8113 -9.78169 -82.7164
rradius 27.9482
rwrist -6.11433
rhand -21.4398 -38.1005
rfingers 7.12502
rthumb 4.94965 -68.0227
lclavicle -7.66967e-014 2.32578e-014
lhumerus -21.4841 13.0482 83.9406
lradius 22.1189
lwrist 10.7735
lhand -24.2598 -11.6643
lfingers 7.12502
lthumb 2.22645 18.3038
rfemur -31.5339 2.6931 19.1788
rtibia 62.1205
rfoot -21.7231 0.513034
rtoes -9.73601
lfemur -15.5408 0.965812 -28.7163
ltibia 33.8627
lfoot -21.8251 -1.9327
ltoes -6.71246
143
root 7.30691 16.0586 -3.69442 6.1397 -8.52337 2.75381
lowerback -1.71922 2.90259 -4.08607
upperback -3.09848 3.85274 -1.45457
thorax -2.39471 1.99915 0.765223
lowerneck -10.5042 -0.423432 -1.74547
upperneck 14.8951 -0.663957 2.36586
head 6.26299 -0.230201 0.983859
rclavicle -4.6233e-015 -1.39149e-015
rhumerus -44.0177 -11.3812 -81.2636
rradius 26.2653
rwrist -4.27855
rhand -21.078 -40.4393
rfingers 7.12502
rthumb 5.299 -70.3531
lclavicle -4.6233e-015 -1.39149e-015
lhumerus -18.9922 10.7731 85.188
lradius 23.2397
lwrist 12.5153
lhand -23.8478 -11.4179
lfingers 7.12502
lthumb 2.62435 18.5457
rfemur -32.8451 3.00996 19.4796
rtibia 60.8371
rfoot -22.1165 0.439325
rtoes -10.157
lfemur -14.0454 0.919244 -28.6026
ltibia 32.7697
lfoot -21.6014 -2.69544
ltoes -6.19756
144
root 7.30348 16.0923 -3.46549 5.95257 -8.05322 2.86071
lowerback -1.57727 2.58979 -4.26587
upperback -3.02704 3.4324 -1.34002
thorax -2.4 1.79394 0.981989
lowerneck -10.555 -0.375974 -1.59452
upperneck 14.884 -0.579504 2.089
head 6.26537 -0.202883 0.877913
rclavicle 2.34038e-014 8.34896e-015
rhumerus -45.5388 -12.8272 -79.7445
rradius 24.8671
rwrist -2.32579
rhand -20.0701 -43.4342
rfingers 7.12502
rthumb 6.27217 -73.3214
lclavicle 2.34038e-014 8.34896e-015
lhumerus -16.6438 8.83938 85.9745
lradius 24.2149
lwrist 14.1098
lhand -23.1125 -10.5694
lfingers 7.12502
lthumb 3.33447 19.3842
rfemur -33.7751 3.00868 19.5758
rtibia 59.2366
rfoot -22.0728 0.0984676
rtoes -11.3684
lfemur -12.3695 0.622691 -28.6626
ltibia 31.7034
lfoot -21.1615 -3.68077
ltoes 0.759028
145
root 7.28962 16.1081 -3.24609 5.92232 -7.42052 3.68366
lowerback -1.5102 2.17808 -5.23203
upperback -3.06547 2.87475 -1.46752
thorax -2.49587 1.53781 1.38961
lowerneck -10.4033 -0.291741 -1.28781
upperneck 14.6917 -0.467324 1.78522
head 6.17483 -0.156886 0.739564
rclavicle -4.22728e-014 -1.39149e-014
rhumerus -47.2014 -15.0461 -77.5255
rradius 23.3285
rwrist 0.584564
rhand -19.3457 -42.0633
rfingers 7.12502
rthumb 6.97148 -71.9285
lclavicle -4.22728e-014 -1.39149e-014
lhumerus -14.308 6.75241 86.4546
lradius 24.8929
lwrist 15.1081
lhand -24.2523 -10.2326
lfingers 7.12502
lthumb 2.23369 19.7354
rfemur -35.1004 2.80017 18.9031
rtibia 57.6845
rfoot -21.6817 -0.701373
rtoes -13.3701
lfemur -10.7559 0.673722 -29.4761
ltibia 30.1838
lfoot -20.2777 -4.90593
ltoes 7.02638
146
root 7.27712 16.1263 -3.04397 6.34143 -7.09074 2.62697
lowerback -1.44868 1.92045 -4.4558
upperback -3.19123 2.53338 -1.00243
thorax -2.6219 1.36024 1.43566
lowerneck -10.3339 -0.130395 -1.44621
upperneck 14.6595 -0.234286 1.86498
head 6.14899 -0.0468837 0.810154
rclavicle -4.26059e-014 -1.2424e-014
rhumerus -48.991 -16.8137 -75.0371
rradius 22.1887
rwrist 3.33651
rhand -18.1309 -39.8052
rfingers 7.12502
rthumb 8.144 -69.6283
lclavicle -4.26059e-014 -1.2424e-014
lhumerus -12.0063 4.48114 86.8053
lradius 25.5425
lwrist 16.4148
lhand -25.6045 -11.1573
lfingers 7.12502
lthumb 0.927712 18.8204
rfemur -36.5709 3.44303 20.242
rtibia 55.7494
rfoot -21.1481 -1.97747
rtoes -16.0304
lfemur -9.58464 0.929236 -28.2365
ltibia 28.7553
lfoot -19.5864 -5.45967
ltoes 7.55481
147
root 7.27983 16.1409 -2.79751 5.99527 -6.64593 4.20229
lowerback -1.56574 1.56812 -6.04893
upperback -3.03239 2.07062 -1.2529
thorax -2.42128 1.15581 2.07806
lowerneck -10.2743 -0.0266128 -1.54425
upperneck 14.7182 -0.0599901 1.75274
head 6.15421 0.0230236 0.805202
rclavicle -2.2107e-015 1.799e-014
rhumerus -51.0044 -18.9722 -71.7079
rradius 20.8367
rwrist 6.74508
rhand -16.7396 -38.4003
rfingers 7.12502
rthumb 9.48656 -68.1668
lclavicle -2.2107e-015 1.799e-014
lhumerus -9.74996 2.38958 87.0012
lradius 26.1309
lwrist 18.0747
lhand -25.1688 -12.7608
lfingers 7.12502
lthumb 1.34856 17.2146
rfemur -37.4474 2.87331 18.6202
rtibia 54.0249
rfoot -21.2784 -1.52857
rtoes -17.2109
lfemur -7.50865 1.21586 -29.8898
ltibia 27.0924
lfoot -19.2545 -6.11569
ltoes 5.88608
148
root 7.27009 16.1523 -2.569 6.10693 -6.37268 3.76769
lowerback -1.6051 1.35664 -5.75008
upperback -3.06086 1.79505 -1.00246
thorax -2.4031 1.01513 2.17379
lowerneck -10.136 0.0362028 -1.12556
upperneck 14.6756 0.0601592 1.09175
head 6.11571 0.0519302 0.536064
rclavicle -1.37332e-014 -1.17283e-014
rhumerus -53.4237 -21.6791 -67.5131
rradius 19.3786
rwrist 11.0987
rhand -16.2569 -36.8985
rfingers 7.12502
rthumb 9.95228 -66.6432
lclavicle -1.37332e-014 -1.17283e-014
lhumerus -7.62001 1.40562 86.9408
lradius 26.7933
lwrist 18.4371
lhand -24.5361 -13.7278
lfingers 7.12502
lthumb 1.95959 16.2429
rfemur -38.4131 3.42258 19.1341
rtibia 51.9157
rfoot -21.6253 -1.47476
rtoes -16.2337
lfemur -6.03167 1.66031 -29.2928
ltibia 25.7405
lfoot -18.9791 -6.91998
ltoes 5.02568
149
root 7.269 16.1548 -2.3515 6.23468 -5.90619 3.64854
lowerback -1.48426 1.04522 -5.61547
upperback -3.14919 1.36993 -0.892533
thorax -2.5269 0.806032 2.21266
lowerneck -9.83908 0.119579 -0.777385
upperneck 14.4254 0.182948 0.660796
head 5.98512 0.0966247 0.351209
rclavicle -1.80141e-014 -7.35503e-015
rhumerus -55.8816 -23.2175 -64.0074
rradius 18.3665
rwrist 14.3665
rhand -16.1906 -35.9092
rfingers 7.12502
rthumb 10.0162 -65.6508
lclavicle -1.80141e-014 -7.35503e-015
lhumerus -5.68698 0.669368 86.6725
lradius 27.7511
lwrist 18.3911
lhand -24.6267 -13.9406
lfingers 7.12502
lthumb 1.87211 16.0309
rfemur -39.4255 3.67204 19.2119
rtibia 49.8544
rfoot -21.2728 -1.22993
rtoes -15.3929
lfemur -4.5757 2.01944 -29.032
ltibia 24.2453
lfoot -18.1853 -7.90225
ltoes 6.39428
